# xmcd CD database file
#
# Track frame offsets:
#	150
#	12144
#	23549
#	33517
#	46750
#	59101
#	71624
#	83797
#	97693
#	111217
#	126010
#	141005
#	156146
#	171221
#	183826
#	197073
#	211387
#	225383
#	239717
#	255138
#
# Disc length: 3560 seconds
#
# Revision: 7
# Processed by: cddbd v1.5.2PL0 Copyright (c) Steve Scherf et al.
# Submitted via: CDex 1.51
#
DISCID=fe0de614
DTITLE=Benny Goodman - Vol.10 - I Had To Do It
DYEAR=1900
DGENRE=Jazz
TTITLE0=Kinda Lonesome
TTITLE1=My Honey's Lovin' Arms
TTITLE2=Farewell Blues
TTITLE3=It Had To Be You
TTITLE4=Louise
TTITLE5=Whispering
TTITLE6=Bach Goes To Town
TTITLE7=I'll Always Be In Love With You
TTITLE8=Undecided
TTITLE9=We'll Never Know
TTITLE10=Good For Nothin' But Love
TTITLE11=Blue Lou
TTITLE12=The Blues
TTITLE13=Shut-Eye
TTITLE14=Cuckoo In The Clock
TTITLE15=And The Angels Sing
TTITLE16=Sent For You Yesterday
TTITLE17=A Home In The Clouds
TTITLE18=Estrellita
TTITLE19=Peace, Brother !
EXTD=
EXTT0=
EXTT1=
EXTT2=
EXTT3=
EXTT4=
EXTT5=
EXTT6=
EXTT7=
EXTT8=
EXTT9=
EXTT10=
EXTT11=
EXTT12=
EXTT13=
EXTT14=
EXTT15=
EXTT16=
EXTT17=
EXTT18=
EXTT19=
PLAYORDER=
